<svg width="75" height="15" viewBox="0 0 75 15" fill="none" xmlns="http://www.w3.org/2000/svg">
<g clip-path="url(#clip0_124_10)">
<path d="M73.8107 1.71427C73.1437 0.824961 71.8797 0.64986 70.9961 1.32437L64.9873 5.91121C61.7157 8.40865 57.2076 8.51417 53.8227 6.17255L52.019 4.92478C47.7355 1.96156 42.0645 1.96156 37.781 4.92478L37.6 5.05C33.2076 8.08856 27.3924 8.08856 23 5.05L22.0743 4.40965C18.237 1.75506 13.1584 1.74838 9.31408 4.39286L1.66793 9.65263C0.748417 10.2852 0.519414 11.5452 1.15757 12.4609V12.4609C1.78981 13.368 3.03558 13.595 3.94713 12.9691L10.2262 8.65811C13.5249 6.39338 17.8768 6.39096 21.178 8.65202L23.0044 9.90298C27.4018 12.9149 33.2578 12.8741 37.6553 9.86214V9.86214C41.988 6.8945 47.7566 6.84941 52.0944 9.80966L52.9892 10.4203C56.9947 13.1538 62.3017 13.0105 66.1538 10.0648L73.4255 4.50406C74.2974 3.83726 74.4693 2.59243 73.8107 1.71427V1.71427Z" fill="#FFACA3"/>
</g>
<defs>
<clipPath id="clip0_124_10">
<rect width="75" height="15" fill="white"/>
</clipPath>
</defs>
</svg>
