<svg width="133" height="14" viewBox="0 0 133 14" fill="none" xmlns="http://www.w3.org/2000/svg">
<path d="M123.487 10.5372C120.04 13.1953 115.27 13.3188 111.69 10.8426L108.789 8.83566C105.366 6.46759 100.834 6.46759 97.4108 8.83566L94.1892 11.0643C90.766 13.4324 86.234 13.4324 82.8108 11.0643L79.6088 8.84921C76.1759 6.47444 71.6292 6.48176 68.204 8.86757L65.096 11.0324C61.6709 13.4182 57.1241 13.4256 53.6912 11.0508L50.4892 8.83566C47.066 6.46759 42.534 6.46759 39.1108 8.83566L35.9088 11.0508C32.4759 13.4256 27.9292 13.4182 24.504 11.0324L21.1957 8.72802C17.8919 6.4268 13.5055 6.42307 10.1978 8.71867L3.94913 13.0555C3.03781 13.6879 1.78647 13.4632 1.15219 12.5531V12.5531C0.516191 11.6406 0.741561 10.3852 1.65523 9.75083L9.98764 3.96591C13.4215 1.58187 17.976 1.58537 21.4062 3.97469L24.504 6.13242C27.9291 8.51823 32.4759 8.52555 35.9088 6.15078L39.1108 3.93566C42.534 1.56759 47.066 1.56759 50.4892 3.93566L53.6912 6.15079C57.1241 8.52556 61.6709 8.51824 65.096 6.13243L68.204 3.96758C71.6291 1.58177 76.1759 1.57445 79.6088 3.94922L82.7912 6.15079C86.2241 8.52556 90.7708 8.51824 94.196 6.13243L97.3322 3.94793C100.743 1.57184 105.269 1.55403 108.699 3.90322L111.919 6.10886C115.31 8.43153 119.808 8.31837 123.078 5.82813L129.048 1.2818C129.907 0.627592 131.133 0.788577 131.794 1.6424V1.6424C132.46 2.50217 132.301 3.73896 131.44 4.403L123.487 10.5372Z" fill="#67F2E0"/>
</svg>
