<svg width="133" height="15" viewBox="0 0 133 15" fill="none" xmlns="http://www.w3.org/2000/svg">
<g clip-path="url(#clip0_128_22)">
<path d="M124.153 10.0231C120.309 12.9875 114.99 13.1252 110.998 10.3637L110.2 9.81163C105.928 6.85632 100.272 6.85632 96 9.81163L95.7874 9.95868C91.4026 12.992 85.5742 12.976 81.1894 9.94263V9.94263C76.82 6.91998 71.0096 6.9133 66.65 9.95V9.95C62.2904 12.9867 56.48 12.98 52.1106 9.95737V9.95737C47.7258 6.92403 41.8712 6.92608 37.4864 9.95941V9.95941C33.1206 12.9796 27.312 12.9883 22.9559 9.9541L21.1957 8.72802C17.8919 6.4268 13.5055 6.42307 10.1978 8.71867L3.94913 13.0555C3.03781 13.6879 1.78647 13.4632 1.15219 12.5531V12.5531C0.516191 11.6406 0.741561 10.3852 1.65523 9.75083L9.26722 4.46607C13.1342 1.78136 18.2631 1.78531 22.1259 4.47597L22.9565 5.05453C27.3122 8.08851 33.1206 8.07957 37.4861 5.05963V5.05963C41.8709 2.02629 47.7258 2.02403 52.1106 5.05737V5.05737C56.48 8.08002 62.2904 8.0867 66.65 5.05V5.05C71.0096 2.0133 76.82 2.01998 81.1894 5.04263V5.04263C85.5742 8.07597 91.4026 8.09202 95.7874 5.05868L96.0325 4.88916C100.286 1.94657 105.917 1.94252 110.175 4.87898L111.92 6.08302C115.308 8.41961 119.815 8.31348 123.089 5.81997L129.048 1.2818C129.907 0.627592 131.133 0.788577 131.794 1.6424V1.6424C132.46 2.50217 132.301 3.73896 131.44 4.403L124.153 10.0231Z" fill="#FFACA3"/>
</g>
<defs>
<clipPath id="clip0_128_22">
<rect width="133" height="15" fill="white"/>
</clipPath>
</defs>
</svg>
